<svg width="583" height="530" viewBox="0 0 583 530" fill="none" xmlns="http://www.w3.org/2000/svg">
<path d="M253.93 485.731C262.91 487.347 260.153 510.254 473.5 523.5C335.484 523.891 61.2311 523.5 35.5002 523.5C24.1573 523.5 17.6472 523.5 12.4288 523.5L4.50001 523.5C4.49999 518.57 4.22322 500.118 4.22323 482.5L4.22322 267C23.3402 335.752 31.2302 344.354 35.5369 359.411C39.8435 374.467 67.0839 394.82 102.632 391.277C138.181 387.734 151.236 422.405 152.556 436.423C153.875 450.441 161.034 477.035 204.114 471.089C247.194 465.143 244.95 484.115 253.93 485.731Z" fill="#96FFCD" stroke="#96FFCD"/>
<path d="M329.5 36.4999C320.5 34.9999 323 12.9999 109.5 2.49992C247.5 0.333256 521.269 1.99987 547 1.99994C579 2.00002 582 25 582 36.4999V252C562 183.5 554 175 549.5 160C545 145 517.5 125 482 129C446.5 133 433 98.4999 431.5 84.4999C430 70.4999 422.5 43.9999 379.5 50.4999C336.5 56.9999 338.5 37.9999 329.5 36.4999Z" fill="#96FFCD" stroke="#96FFCD"/>
</svg>
