<svg width="43" height="43" viewBox="0 0 43 43" fill="none" xmlns="http://www.w3.org/2000/svg">
<path d="M10.1336 36.6916C9.8764 36.9153 9.56068 37.0609 9.22354 37.1114C8.88641 37.162 8.54186 37.1152 8.23034 36.9768C7.91882 36.8383 7.65327 36.6139 7.46485 36.3298C7.27644 36.0457 7.17299 35.7137 7.16665 35.3729V31.3542C6.21629 31.3542 5.30485 30.9767 4.63285 30.3047C3.96084 29.6326 3.58331 28.7212 3.58331 27.7709V15.2292C3.58331 14.2788 3.96084 13.3674 4.63285 12.6954C5.30485 12.0234 6.21629 11.6459 7.16665 11.6459H26.875C27.8253 11.6459 28.7368 12.0234 29.4088 12.6954C30.0808 13.3674 30.4583 14.2788 30.4583 15.2292V27.7709C30.4583 28.7212 30.0808 29.6326 29.4088 30.3047C28.7368 30.9767 27.8253 31.3542 26.875 31.3542H17.922L10.1336 36.6916V36.6916ZM11.6458 31.1499C11.8091 31.149 11.9694 31.1064 12.1116 31.0263L16.331 28.0916C16.6313 27.8827 16.9883 27.7708 17.3541 27.7709H25.0833C25.5585 27.7709 26.0142 27.5821 26.3502 27.2461C26.6862 26.9101 26.875 26.4544 26.875 25.9792V17.0209C26.875 16.5457 26.6862 16.09 26.3502 15.754C26.0142 15.418 25.5585 15.2292 25.0833 15.2292H8.95831C8.48313 15.2292 8.02742 15.418 7.69141 15.754C7.35541 16.09 7.16665 16.5457 7.16665 17.0209V25.9792C7.16665 26.9467 7.93527 27.7386 8.95831 27.7709C9.6929 27.7995 10.225 27.9196 10.4705 28.1758C10.6998 28.4159 10.7124 28.8208 10.75 29.5912C10.7554 29.7041 10.7554 29.9083 10.75 30.2541C10.75 30.4917 10.8444 30.7196 11.0124 30.8876C11.1804 31.0556 11.4082 31.1499 11.6458 31.1499V31.1499ZM32.25 22.4245C32.2442 22.6455 32.2442 22.8665 32.25 23.0874V22.4245C32.2858 21.6541 32.3001 21.2492 32.5295 21.0091C32.7749 20.7529 33.3071 20.6329 34.0416 20.6042C35.0647 20.5719 35.8333 19.78 35.8333 18.8125V9.85419C35.8333 9.37901 35.6445 8.92329 35.3085 8.58729C34.9725 8.25128 34.5168 8.06252 34.0416 8.06252H17.9166C17.4415 8.06252 16.9857 8.25128 16.6497 8.58729C16.3137 8.92329 16.125 9.37901 16.125 9.85419H12.5416V8.06252C12.5416 7.11216 12.9192 6.20073 13.5912 5.52872C14.2632 4.85672 15.1746 4.47919 16.125 4.47919H35.8333C36.7837 4.47919 37.6951 4.85672 38.3671 5.52872C39.0391 6.20073 39.4166 7.11216 39.4166 8.06252V20.6042C39.4166 21.5545 39.0391 22.466 38.3671 23.138C37.6951 23.81 36.7837 24.1875 35.8333 24.1875V28.2062C35.827 28.5471 35.7235 28.879 35.5351 29.1631C35.3467 29.4472 35.0811 29.6717 34.7696 29.8101C34.4581 29.9486 34.1136 29.9953 33.7764 29.9448C33.4393 29.8942 33.1236 29.7486 32.8663 29.5249L32.25 29.1021V22.4263V22.4245Z" fill="#96FFCD"/>
</svg>
